<svg width="201" height="53" viewBox="0 0 201 53" fill="none" xmlns="http://www.w3.org/2000/svg">
<path fill-rule="evenodd" clip-rule="evenodd" d="M103.174 34.0537H97.6686V5.42001H93.4678V34.0537H87.8664V4.65292C87.8664 3.18166 88.2683 2.03006 89.0734 1.19909C89.8469 0.399455 90.9565 0 92.4055 0H97.1376C98.1677 0 98.9732 0.287839 99.5516 0.864C100.131 1.43992 100.421 2.23835 100.421 3.2617C100.421 2.20677 100.695 1.40713 101.242 0.864C101.822 0.28808 102.61 0 103.609 0H108.39C109.806 0 110.933 0.399455 111.769 1.19909C112.574 2.03006 112.977 3.18166 112.977 4.65292V34.0537H107.278V5.42001H103.174V34.0537H103.174Z" fill="white"/>
<path fill-rule="evenodd" clip-rule="evenodd" d="M116.999 0H122.601V14.6769L126.705 12.5658V0H132.403V29.1614C132.403 30.8251 132.017 32.0553 131.245 32.8547C130.471 33.6543 129.281 34.0537 127.671 34.0537H121.539C120.091 34.0537 118.98 33.6543 118.206 32.8547C117.401 32.0237 117 30.8721 117 29.4008V28.1538L122.601 25.2768V28.6824H126.705V18.6572L117 23.6932V0H116.999Z" fill="white"/>
<path fill-rule="evenodd" clip-rule="evenodd" d="M141.827 18.2903V52.3434H136.014V36.5638L131.515 38.7221V52.3434H125.702V18.2903H131.515V32.584L136.014 30.4726V18.2903H141.827Z" fill="#FE8128"/>
<path fill-rule="evenodd" clip-rule="evenodd" d="M146.201 52.3434V18.2903H160.406V23.7104H152.066V32.5355L160.406 28.5542V34.6466L152.066 38.6749V46.9241H160.406V52.3434H146.201Z" fill="#FE8128"/>
<path fill-rule="evenodd" clip-rule="evenodd" d="M174.325 52.3434V37.9078L169.927 40.0176V52.3434H164.064V22.9433C164.064 21.472 164.485 20.3204 165.327 19.4894C166.136 18.6898 167.299 18.2903 168.815 18.2903H175.387C176.903 18.2903 178.082 18.6898 178.925 19.4894C179.767 20.3206 180.189 21.472 180.189 22.9433V52.3434H174.325ZM174.325 31.9123V23.6619H169.927V33.9265L174.325 31.9123Z" fill="#FE8128"/>
<path fill-rule="evenodd" clip-rule="evenodd" d="M188.539 52.3434V23.7104H182.726V18.2903H200.215V23.7104H194.403V52.3434H188.539Z" fill="#FE8128"/>
<path fill-rule="evenodd" clip-rule="evenodd" d="M45.5343 2.18151C43.0614 3.7774 40.8069 6.12784 38.7732 9.23526C37.3716 11.2788 35.8838 14.0128 34.3134 17.4375C33.3768 19.4728 31.9048 22.9563 29.8986 27.8845C28.6734 30.9334 27.5387 33.2602 26.4939 34.8619C25.3024 37.0077 23.5974 39.1648 21.3756 41.331C18.2789 44.4539 14.6951 46.8687 10.6256 48.5747C7.93759 49.6355 5.51244 50.3035 3.35064 50.579L0.784729 50.6947L3.05065 48.8491L8.44024 43.6284C10.7139 41.1811 12.5959 38.7014 14.0893 36.1875C15.106 34.4839 15.8341 33.0565 16.2722 31.9083L18.3389 26.645C20.0623 22.1779 22.5761 17.8996 25.8786 13.8103C28.962 10.0414 32.156 7.1401 35.4624 5.10402C38.1868 3.42037 40.7083 2.4274 43.0264 2.12389C44.1812 1.99444 45.0169 2.01372 45.5343 2.18151Z" fill="#FE8128"/>
<path fill-rule="evenodd" clip-rule="evenodd" d="M62.0235 2.28755C59.5508 3.88344 57.2963 6.23389 55.2628 9.3413C53.8612 11.3849 52.3732 14.1189 50.8026 17.5435C49.8662 19.5794 48.3942 23.0624 46.3877 27.9906C45.1625 31.0397 44.0279 33.3665 42.9828 34.9679C41.7918 37.1139 40.0865 39.2708 37.865 41.4371C34.7681 44.5604 31.1845 46.975 27.115 48.6808C24.4267 49.7415 22.0016 50.4098 19.84 50.6851L17.2741 50.8008L19.5398 48.9554L24.9296 43.7347C27.2033 41.2876 29.0853 38.8077 30.5787 36.2941C31.5954 34.5904 32.3237 33.163 32.7618 32.0148L34.8283 26.7515C36.5517 22.2844 39.0655 18.0061 42.3685 13.9168C45.4516 10.1482 48.6459 7.24639 51.9521 5.21078C54.6765 3.52714 57.198 2.53417 59.5156 2.23042C60.6706 2.10072 61.5072 2.11977 62.0235 2.28755Z" fill="white"/>
<path fill-rule="evenodd" clip-rule="evenodd" d="M78.37 2.18151C75.8968 3.7774 73.6425 6.12784 71.6091 9.23526C70.2072 11.2788 68.7194 14.0128 67.1489 17.4375C66.2122 19.4728 64.7405 22.9563 62.734 27.8845C61.5088 30.9334 60.3741 33.2602 59.329 34.8619C58.1381 37.0077 56.4326 39.1648 54.211 41.331C51.1143 44.4539 47.5305 46.8687 43.461 48.5747C40.7733 49.6355 38.3476 50.3035 36.1863 50.579L33.6204 50.6947L35.8861 48.8491L41.2759 43.6284C43.5496 41.1811 45.4313 38.7014 46.9249 36.1875C47.9416 34.4839 48.6698 33.0565 49.1081 31.9083L51.1745 26.645C52.8978 22.1779 55.4115 17.8996 58.7145 13.8103C61.7976 10.0414 64.9919 7.1401 68.2983 5.10402C71.0227 3.42037 73.5442 2.4274 75.8621 2.12389C77.0169 1.99444 77.8535 2.01372 78.37 2.18151Z" fill="#FE8128"/>
<path fill-rule="evenodd" clip-rule="evenodd" d="M147.528 5.48104C147.627 5.45838 147.709 5.43572 147.774 5.41282C147.839 5.39016 147.9 5.37111 147.957 5.35592C148.014 5.34073 148.073 5.32941 148.134 5.32193C148.195 5.31446 148.279 5.3106 148.386 5.3106C148.767 5.3106 149.148 5.36556 149.529 5.47525C149.91 5.58494 150.255 5.75731 150.564 5.99187C150.873 6.22667 151.122 6.5256 151.313 6.88914C151.503 7.25243 151.599 7.68781 151.599 8.19502C151.599 8.61907 151.505 9.00695 151.319 9.35891C151.132 9.71087 150.88 10.0158 150.564 10.2731C150.248 10.5305 149.878 10.7311 149.455 10.875C149.032 11.0189 148.588 11.0908 148.123 11.0908C147.963 11.0908 147.772 11.085 147.552 11.0737C147.33 11.0623 147.102 11.0435 146.865 11.017C146.629 10.9905 146.399 10.9582 146.174 10.9203C145.949 10.8825 145.753 10.8372 145.585 10.7839V3.10721H147.529V5.48104H147.528ZM149.621 8.20659C149.621 7.49495 149.529 6.94796 149.346 6.56562C149.163 6.18328 148.82 5.99211 148.317 5.99211C148.226 5.99211 148.15 5.9979 148.089 6.00923C148.028 6.02056 147.972 6.03574 147.923 6.05455C147.873 6.07359 147.818 6.09625 147.757 6.12277C147.696 6.14929 147.62 6.17773 147.528 6.20787V10.228C147.627 10.2658 147.709 10.2962 147.774 10.3189C147.839 10.3415 147.902 10.3586 147.963 10.37C148.024 10.3813 148.088 10.3907 148.157 10.3984C148.226 10.4059 148.313 10.4097 148.42 10.4097C148.672 10.4097 148.876 10.3569 149.032 10.2509C149.188 10.1448 149.31 9.99534 149.398 9.80224C149.485 9.60914 149.544 9.3782 149.575 9.1094C149.606 8.84061 149.621 8.53975 149.621 8.20659ZM152.971 12.7262C153.131 12.6961 153.293 12.6466 153.457 12.5784C153.62 12.5102 153.769 12.4138 153.903 12.2889C154.036 12.164 154.145 12.0088 154.228 11.8234C154.312 11.6378 154.354 11.4126 154.354 11.1477L152.056 5.37882L154.068 5.39015L155.577 9.10362L156.938 5.37882H157.727L155.44 11.1477L155.234 11.6927C155.166 11.9123 155.063 12.1204 154.926 12.3173C154.789 12.5141 154.623 12.6883 154.428 12.8397C154.234 12.9911 154.013 13.116 153.765 13.2146C153.518 13.313 153.253 13.3773 152.97 13.4075V12.7262H152.971Z" fill="white"/>
<path fill-rule="evenodd" clip-rule="evenodd" d="M161.803 11.057V0.0164026H169.981V1.18343H164.534V4.73224H169.488V5.89927H164.534V9.88972H170.028V11.057H161.803ZM176.507 8.02865L179.366 0.0164026H180.699L176.745 11.057H174.618L170.664 0.0164026H173.649L176.507 8.02865ZM185.749 7.71309L186.94 11.0567H189.861L185.907 0.0161635H183.049L179.095 11.0567H180.429L181.62 7.71309H185.749ZM182.033 6.54606L183.685 1.92472L185.32 6.54606H182.033ZM198.913 11.057L191.656 2.53994V11.057H190.497V0.000732422L193.085 0.0166454L199.071 7.20877V0.000732422H200.215V11.057H198.913Z" fill="white"/>
</svg>
